<svg xmlns="http://www.w3.org/2000/svg" width="150" height="150" viewBox="0 0 150 150"><rect width="100%" height="100%" fill="#DDDDDD"/><path fill="#999999" d="M37.885 68.955h2.01v12.29h-1.17q-.27 0-.46-.09-.18-.09-.35-.3l-6.42-8.2q.06.57.06 1.04v7.55h-2.02v-12.29h1.2q.14 0 .25.01.11.01.19.05t.15.11q.08.08.17.19l6.45 8.23q-.03-.3-.05-.58-.01-.29-.01-.54v-7.47Zm9.02 10.04v-1.47q-.9.04-1.53.15-.62.12-.99.3t-.54.41q-.16.24-.16.52 0 .55.33.79t.85.24q.65 0 1.12-.23.47-.24.92-.71Zm-4.43-4.58-.38-.68q1.51-1.37 3.62-1.37.77 0 1.37.25.61.25 1.02.7.42.44.64 1.06.21.62.21 1.36v5.51h-.95q-.3 0-.46-.09-.16-.09-.25-.36l-.19-.63q-.33.3-.65.52-.31.23-.65.38t-.73.24q-.38.08-.85.08-.55 0-1.02-.15t-.81-.45q-.34-.3-.53-.74-.18-.44-.18-1.03 0-.33.11-.66.11-.32.36-.62t.65-.56q.4-.26.98-.46t1.36-.32q.77-.12 1.76-.15v-.51q0-.87-.37-1.29-.37-.43-1.08-.43-.51 0-.84.12-.34.12-.6.27-.25.15-.46.27-.21.12-.46.12-.22 0-.38-.12-.15-.11-.24-.26Zm14.25-.95-.47.76q-.09.13-.18.19-.1.06-.24.06-.15 0-.33-.09l-.4-.19q-.23-.11-.52-.19-.3-.09-.7-.09-.62 0-.97.27-.35.26-.35.68 0 .29.18.48t.48.33q.31.15.69.26.38.12.78.25.39.14.77.31.39.18.69.44.3.27.48.65.19.37.19.9 0 .63-.23 1.16-.22.53-.67.92-.44.38-1.09.6-.65.22-1.5.22-.45 0-.88-.08-.43-.09-.82-.23-.4-.14-.73-.34-.34-.2-.6-.43l.49-.79q.09-.15.22-.23.13-.07.32-.07.2 0 .37.11.18.11.41.24.23.12.54.23.31.12.78.12.38 0 .64-.09.27-.09.45-.24.17-.14.25-.33.08-.19.08-.4 0-.3-.18-.5t-.48-.34q-.31-.14-.69-.26-.39-.11-.79-.25-.41-.14-.79-.32-.39-.18-.69-.46-.3-.28-.49-.69-.18-.41-.18-.99 0-.53.21-1.02.21-.48.63-.84.41-.36 1.03-.58.61-.22 1.42-.22.9 0 1.64.3.74.3 1.23.78Zm1.74-.94h2.11v8.72h-2.11v-8.72Zm2.4-2.54q0 .27-.11.51t-.29.41q-.18.18-.43.29-.25.1-.53.1-.27 0-.51-.1-.24-.11-.42-.29-.18-.17-.29-.41-.1-.24-.1-.51 0-.28.1-.53.11-.25.29-.42.18-.18.42-.29.24-.11.51-.11.28 0 .53.11t.43.29q.18.17.29.42.11.25.11.53Zm8.6 5.15h1.71q.63 0 1.1-.16.47-.16.78-.45.31-.29.46-.71.15-.42.15-.94 0-.5-.15-.9-.15-.39-.46-.68-.3-.28-.77-.42-.47-.15-1.11-.15h-1.71v4.41Zm-2.28-6.18h3.99q1.23 0 2.14.29.9.29 1.48.81.59.51.87 1.24.29.72.29 1.58 0 .89-.3 1.63-.3.75-.89 1.28-.6.54-1.49.84-.9.29-2.1.29h-1.71v4.33h-2.28v-12.29Zm11.85 6.93h3.96q0-.41-.12-.77-.11-.36-.34-.64-.23-.27-.58-.43-.36-.15-.82-.15-.91 0-1.44.52-.52.51-.66 1.47Zm5.35 1.26h-5.4q.06.67.24 1.16.19.49.5.81.3.32.72.48.42.15.93.15t.88-.12q.37-.11.65-.26.27-.14.48-.26.21-.12.41-.12.26 0 .39.19l.6.77q-.35.41-.78.68-.43.28-.91.45-.47.16-.96.23t-.94.07q-.91 0-1.7-.3-.78-.31-1.36-.9-.57-.59-.91-1.46-.33-.87-.33-2.02 0-.89.29-1.68.29-.78.83-1.36.54-.59 1.32-.93.78-.34 1.75-.34.83 0 1.53.27.69.26 1.19.77.51.5.79 1.24.28.73.28 1.68 0 .47-.1.64-.1.16-.39.16Zm8.87-3.54-.56.76q-.09.12-.18.19t-.26.07q-.16 0-.31-.1t-.37-.22q-.21-.12-.5-.22-.3-.1-.73-.1-.55 0-.97.2-.42.2-.69.57-.28.38-.41.91-.14.53-.14 1.2 0 .7.15 1.24.15.55.43.92t.68.56q.4.19.9.19t.81-.12q.31-.13.52-.28.22-.14.37-.27.16-.12.36-.12.25 0 .38.19l.6.77q-.35.41-.75.68-.41.28-.85.45-.44.16-.9.23t-.92.07q-.81 0-1.52-.3-.72-.31-1.25-.88-.54-.58-.85-1.42-.31-.84-.31-1.91 0-.96.28-1.78.27-.82.81-1.42.53-.6 1.32-.94.79-.34 1.82-.34.98 0 1.72.32.73.31 1.32.9Zm3.05 2.28h3.96q0-.41-.12-.77-.11-.36-.34-.64-.23-.27-.58-.43-.35-.15-.82-.15-.91 0-1.43.52-.53.51-.67 1.47Zm5.35 1.26h-5.39q.05.67.23 1.16.19.49.5.81.3.32.72.48.42.15.93.15t.88-.12q.37-.11.65-.26.28-.14.48-.26.21-.12.41-.12.26 0 .39.19l.6.77q-.35.41-.78.68-.43.28-.9.45-.48.16-.96.23-.49.07-.95.07-.91 0-1.69-.3-.79-.31-1.36-.9-.58-.59-.91-1.46-.33-.87-.33-2.02 0-.89.28-1.68.29-.78.83-1.36.54-.59 1.32-.93.78-.34 1.76-.34.82 0 1.52.27.69.26 1.2.77.5.5.78 1.24.29.73.29 1.68 0 .47-.11.64-.1.16-.39.16Zm2.09-8.53h2.1v12.63h-2.1v-12.63Zm9.61 8h3.74v-4.02q0-.57.08-1.26l-3.82 5.28Zm5.57 0h1.54v1.21q0 .17-.11.3-.11.12-.31.12h-1.12v3h-1.83v-3h-5.19q-.21 0-.37-.13t-.2-.33l-.22-1.06 5.82-7.78h1.99v7.67Z"/></svg>