<svg xmlns="http://www.w3.org/2000/svg" width="400" height="200" viewBox="0 0 400 200"><rect width="100%" height="100%" fill="#DDDDDD"/><path fill="#999999" d="M91.01 100.14h6.43q2.37 0 4.13-.59 1.76-.59 2.93-1.7 1.17-1.1 1.74-2.68.58-1.59.58-3.54 0-1.86-.58-3.36-.57-1.5-1.72-2.56-1.16-1.06-2.92-1.62t-4.16-.56h-6.43v16.61ZM82.4 76.88h15.04q4.64 0 8.04 1.09 3.39 1.08 5.6 3.04 2.2 1.95 3.28 4.67 1.07 2.72 1.07 5.95 0 3.36-1.12 6.16-1.12 2.8-3.36 4.82-2.24 2.01-5.62 3.13-3.37 1.12-7.89 1.12h-6.43v16.29H82.4V76.88Zm45.35 15.42.48 3.71q1.53-2.94 3.65-4.62 2.11-1.68 4.99-1.68 2.27 0 3.65.99l-.52 5.92q-.16.58-.46.82-.3.24-.82.24-.48 0-1.42-.16t-1.84-.16q-1.31 0-2.34.38-1.02.39-1.84 1.11-.81.72-1.44 1.74-.62 1.02-1.16 2.34v20.22h-7.91V90.32h4.64q1.22 0 1.7.43t.64 1.55Zm31.42-2.49q3.65 0 6.64 1.18 2.99 1.18 5.12 3.36 2.13 2.18 3.28 5.31 1.15 3.14 1.15 7.01 0 3.9-1.15 7.04t-3.28 5.34q-2.13 2.21-5.12 3.4-2.99 1.18-6.64 1.18-3.68 0-6.69-1.18-3-1.19-5.13-3.4-2.13-2.2-3.3-5.34-1.17-3.14-1.17-7.04 0-3.87 1.17-7.01 1.17-3.13 3.3-5.31 2.13-2.18 5.13-3.36 3.01-1.18 6.69-1.18Zm0 27.74q4.1 0 6.07-2.75 1.96-2.75 1.96-8.07 0-5.31-1.96-8.09-1.97-2.79-6.07-2.79-4.16 0-6.16 2.8t-2 8.08q0 5.28 2 8.05 2 2.77 6.16 2.77Zm30.15 5.6h-7.91V90.32h4.83q1.54 0 2.02 1.44l.51 2.43q.87-.96 1.81-1.76.94-.8 2.02-1.38 1.07-.57 2.3-.91 1.23-.33 2.7-.33 3.11 0 5.11 1.68 2 1.68 2.99 4.46.77-1.63 1.92-2.8t2.53-1.9q1.37-.74 2.93-1.09 1.55-.35 3.12-.35 2.72 0 4.83.83t3.55 2.43q1.44 1.6 2.19 3.9.75 2.31.75 5.28v20.9h-7.9v-20.9q0-3.13-1.38-4.72-1.37-1.58-4.03-1.58-1.21 0-2.25.42-1.04.41-1.83 1.2-.78.78-1.23 1.96-.45 1.19-.45 2.72v20.9h-7.93v-20.9q0-3.29-1.33-4.8-1.33-1.5-3.89-1.5-1.73 0-3.22.85-1.48.85-2.76 2.32v24.03Zm60.22-33.34q3.65 0 6.64 1.18 2.99 1.18 5.12 3.36 2.13 2.18 3.28 5.31 1.15 3.14 1.15 7.01 0 3.9-1.15 7.04t-3.28 5.34q-2.13 2.21-5.12 3.4-2.99 1.18-6.64 1.18-3.68 0-6.69-1.18-3.01-1.19-5.13-3.4-2.13-2.2-3.3-5.34-1.17-3.14-1.17-7.04 0-3.87 1.17-7.01 1.17-3.13 3.3-5.31 2.12-2.18 5.13-3.36 3.01-1.18 6.69-1.18Zm0 27.74q4.1 0 6.06-2.75 1.97-2.75 1.97-8.07 0-5.31-1.97-8.09-1.96-2.79-6.06-2.79-4.16 0-6.16 2.8t-2 8.08q0 5.28 2 8.05 2 2.77 6.16 2.77Zm53.41-1.76h11.87q1.28 0 2.03.72.75.72.75 1.9v4.74h-31.74v-2.62q0-.8.34-1.68.33-.88 1.07-1.59l14.05-14.08q1.76-1.79 3.15-3.42t2.32-3.23q.93-1.6 1.42-3.25.5-1.65.5-3.47 0-1.67-.48-2.93-.48-1.27-1.36-2.13-.88-.86-2.11-1.3-1.24-.43-2.77-.43-1.41 0-2.61.4t-2.13 1.12q-.93.72-1.57 1.68t-.96 2.11q-.54 1.48-1.4 1.96-.87.48-2.5.22l-4.16-.74q.48-3.32 1.86-5.84 1.37-2.51 3.44-4.19 2.06-1.68 4.73-2.53 2.67-.84 5.75-.84 3.2 0 5.85.94 2.66.94 4.55 2.67 1.88 1.73 2.94 4.16t1.06 5.41q0 2.56-.76 4.74-.75 2.17-2.01 4.16-1.27 1.98-2.96 3.84-1.7 1.85-3.55 3.77l-10.44 10.66q1.51-.45 3-.69 1.48-.24 2.83-.24Z"/></svg>