<svg xmlns="http://www.w3.org/2000/svg" width="400" height="400" viewBox="0 0 400 400"><rect width="100%" height="100%" fill="#DDDDDD"/><path fill="#999999" d="M95.305 188.27h3.91v23.86h-2.27q-.53 0-.89-.17-.35-.18-.68-.59l-12.46-15.9q.1 1.08.1 2.01v14.65h-3.91v-23.86h2.33q.28 0 .48.03.21.02.37.09.15.08.3.22t.33.37l12.51 15.97q-.05-.58-.08-1.14-.04-.56-.04-1.04v-14.5Zm17.53 19.49v-2.86q-1.77.09-2.97.31-1.21.22-1.93.57-.73.34-1.04.81-.32.46-.32 1 0 1.07.64 1.54.63.46 1.66.46 1.25 0 2.17-.45.91-.46 1.79-1.38Zm-8.62-8.9-.72-1.3q2.92-2.67 7.03-2.67 1.48 0 2.65.48 1.17.49 1.98 1.36.81.86 1.23 2.07.42 1.2.42 2.64v10.69h-1.85q-.57 0-.89-.17-.31-.18-.49-.7l-.36-1.23q-.65.58-1.26 1.02-.61.44-1.27.73-.66.3-1.41.46-.75.15-1.66.15-1.07 0-1.98-.28-.91-.29-1.57-.87-.66-.58-1.02-1.44-.36-.85-.36-1.99 0-.65.21-1.28.22-.64.7-1.21.49-.58 1.27-1.09.77-.52 1.9-.89 1.13-.38 2.63-.62 1.51-.24 3.44-.29v-.99q0-1.7-.73-2.52-.73-.82-2.1-.82-.99 0-1.64.24-.65.23-1.14.52-.5.28-.9.52-.41.23-.9.23-.43 0-.73-.23-.3-.22-.48-.52Zm27.67-1.83-.92 1.47q-.17.26-.35.37-.18.11-.46.11-.3 0-.63-.17l-.79-.37q-.44-.2-1.01-.37-.57-.16-1.35-.16-1.2 0-1.89.51-.68.51-.68 1.33 0 .55.35.92.36.37.94.65.59.28 1.33.51.74.22 1.51.48.77.27 1.51.6.74.34 1.33.86.59.52.94 1.25.36.72.36 1.75 0 1.22-.44 2.25t-1.3 1.78q-.86.75-2.12 1.17-1.26.42-2.91.42-.87 0-1.71-.15-.83-.16-1.6-.44-.77-.28-1.42-.66-.65-.38-1.14-.83l.94-1.55q.18-.28.43-.43.24-.14.62-.14t.72.21q.34.22.78.46.45.25 1.05.46.6.22 1.53.22.72 0 1.24-.17.52-.18.86-.46.34-.28.5-.65.15-.37.15-.77 0-.59-.35-.97-.36-.38-.94-.66-.59-.28-1.34-.5-.75-.23-1.53-.49-.79-.26-1.54-.62-.75-.35-1.33-.9-.59-.54-.94-1.33-.36-.8-.36-1.92 0-1.04.41-1.98.42-.94 1.22-1.64t1.99-1.12q1.2-.42 2.77-.42 1.75 0 3.18.57 1.44.58 2.39 1.52Zm3.39-1.83h4.09v16.93h-4.09V195.2Zm4.65-4.93q0 .53-.22.99-.21.46-.56.81-.36.34-.84.55-.48.21-1.02.21-.53 0-1-.21t-.82-.55q-.34-.35-.55-.81-.2-.46-.2-.99 0-.55.2-1.03.21-.47.55-.82.35-.35.82-.55.47-.21 1-.21.54 0 1.02.21.48.2.84.55.35.35.56.82.22.48.22 1.03Zm16.7 10h3.31q1.22 0 2.13-.31.91-.3 1.51-.87.6-.57.9-1.39.3-.82.3-1.82 0-.96-.3-1.73-.3-.78-.89-1.32-.59-.55-1.5-.84-.91-.29-2.15-.29h-3.31v8.57Zm-4.44-12h7.75q2.4 0 4.15.56 1.74.56 2.88 1.57t1.69 2.41q.56 1.4.56 3.07 0 1.73-.58 3.17-.58 1.45-1.73 2.49-1.16 1.04-2.9 1.61-1.74.58-4.07.58h-3.31v8.4h-4.44v-23.86Zm23 13.45h7.69q0-.79-.22-1.49-.23-.71-.67-1.23-.45-.53-1.13-.84-.69-.3-1.59-.3-1.77 0-2.79 1-1.01 1.01-1.29 2.86Zm10.39 2.46h-10.47q.1 1.3.46 2.25t.96 1.57q.59.62 1.41.92.81.31 1.8.31t1.71-.24q.72-.23 1.26-.51.53-.28.94-.51.4-.23.78-.23.51 0 .76.38l1.17 1.49q-.68.79-1.52 1.32-.84.54-1.76.86-.91.32-1.86.46-.95.13-1.84.13-1.76 0-3.28-.59-1.52-.58-2.64-1.73t-1.77-2.84q-.64-1.69-.64-3.92 0-1.73.56-3.26.56-1.52 1.61-2.65t2.56-1.79q1.51-.66 3.4-.66 1.6 0 2.96.51 1.35.51 2.32 1.49.98.98 1.53 2.41.55 1.43.55 3.26 0 .92-.2 1.25-.19.32-.76.32Zm17.21-6.88-1.07 1.48q-.18.23-.35.36-.18.14-.51.14-.31 0-.61-.19-.29-.19-.71-.43-.41-.24-.98-.43-.57-.19-1.41-.19-1.07 0-1.88.39-.81.38-1.34 1.11-.54.73-.8 1.76-.27 1.03-.27 2.33 0 1.36.29 2.41.29 1.06.83 1.78.55.71 1.32 1.08.78.38 1.75.38.98 0 1.58-.24.6-.24 1.01-.53.42-.29.72-.53.31-.24.69-.24.49 0 .74.38l1.17 1.49q-.68.79-1.47 1.32-.79.54-1.64.86-.85.32-1.75.46-.9.13-1.79.13-1.57 0-2.95-.59-1.39-.58-2.43-1.71-1.04-1.12-1.64-2.74-.6-1.63-.6-3.71 0-1.86.53-3.45.54-1.6 1.58-2.76 1.04-1.16 2.57-1.82 1.54-.66 3.53-.66 1.9 0 3.33.61 1.43.61 2.56 1.75Zm5.93 4.42h7.69q0-.79-.23-1.49-.22-.71-.66-1.23-.45-.53-1.13-.84-.69-.3-1.6-.3-1.76 0-2.78 1-1.01 1.01-1.29 2.86Zm10.39 2.46h-10.47q.09 1.3.46 2.25.36.95.95 1.57.6.62 1.41.92.82.31 1.81.31.99 0 1.71-.24.72-.23 1.25-.51.54-.28.94-.51.41-.23.79-.23.51 0 .76.38l1.17 1.49q-.68.79-1.52 1.32-.84.54-1.76.86-.91.32-1.86.46-.95.13-1.84.13-1.77 0-3.28-.59-1.52-.58-2.64-1.73-1.13-1.15-1.77-2.84-.64-1.69-.64-3.92 0-1.73.56-3.26.56-1.52 1.61-2.65 1.04-1.13 2.55-1.79 1.51-.66 3.41-.66 1.6 0 2.95.51 1.36.51 2.33 1.49t1.53 2.41q.55 1.43.55 3.26 0 .92-.2 1.25-.2.32-.76.32Zm4.06-16.57h4.08v24.52h-4.08v-24.52Zm26.95 21.47h4.29v3.05h-13.2v-3.05h4.83v-13.91q0-.83.05-1.7l-3.43 2.87q-.3.23-.59.29-.29.06-.54.01-.26-.05-.46-.18-.19-.12-.29-.27l-1.29-1.76 7.28-6.19h3.35v20.84Zm24.66-8.88q0 3.12-.66 5.42-.67 2.3-1.85 3.8-1.18 1.51-2.79 2.24-1.61.73-3.47.73-1.87 0-3.46-.73-1.59-.73-2.76-2.24-1.18-1.5-1.84-3.8-.66-2.3-.66-5.42 0-3.13.66-5.43.66-2.29 1.84-3.79 1.17-1.5 2.76-2.24 1.59-.73 3.46-.73 1.86 0 3.47.73 1.61.74 2.79 2.24 1.18 1.5 1.85 3.79.66 2.3.66 5.43Zm-4.2 0q0-2.59-.38-4.29-.38-1.7-1.02-2.71-.63-1-1.46-1.41-.82-.4-1.71-.4-.88 0-1.7.4-.81.41-1.44 1.41-.63 1.01-1 2.71t-.37 4.29q0 2.59.37 4.29.37 1.7 1 2.71.63 1 1.44 1.41.82.4 1.7.4.89 0 1.71-.4.83-.41 1.46-1.41.64-1.01 1.02-2.71t.38-4.29Zm6.45 9.69q0-.52.19-.98.19-.46.52-.79t.79-.53q.46-.2.99-.2t.98.2q.45.2.79.53t.54.79q.2.46.2.98t-.2.98q-.2.45-.54.78t-.79.52q-.45.19-.98.19t-.99-.19q-.46-.19-.79-.52t-.52-.78q-.19-.46-.19-.98Zm19.2-.81h4.29v3.05h-13.2v-3.05h4.84v-13.91q0-.83.05-1.7l-3.43 2.87q-.3.23-.59.29-.29.06-.54.01-.26-.05-.46-.18-.2-.12-.3-.27l-1.28-1.76 7.27-6.19h3.35v20.84Zm24.67-8.88q0 3.12-.67 5.42t-1.85 3.8q-1.17 1.51-2.78 2.24-1.61.73-3.48.73-1.86 0-3.45-.73-1.6-.73-2.77-2.24-1.17-1.5-1.83-3.8-.66-2.3-.66-5.42 0-3.13.66-5.43.66-2.29 1.83-3.79t2.77-2.24q1.59-.73 3.45-.73 1.87 0 3.48.73 1.61.74 2.78 2.24 1.18 1.5 1.85 3.79.67 2.3.67 5.43Zm-4.21 0q0-2.59-.38-4.29-.38-1.7-1.01-2.71-.64-1-1.46-1.41-.83-.4-1.72-.4-.87 0-1.69.4-.81.41-1.44 1.41-.63 1.01-1 2.71t-.37 4.29q0 2.59.37 4.29.37 1.7 1 2.71.63 1 1.44 1.41.82.4 1.69.4.89 0 1.72-.4.82-.41 1.46-1.41.63-1.01 1.01-2.71t.38-4.29Z"/></svg>