<svg xmlns="http://www.w3.org/2000/svg" width="400" height="200" viewBox="0 0 400 200"><rect width="100%" height="100%" fill="#DDDDDD"/><path fill="#999999" d="M91.31 99.87h6.43q2.37 0 4.13-.59 1.76-.59 2.93-1.7 1.17-1.1 1.74-2.68.58-1.59.58-3.54 0-1.86-.58-3.36-.57-1.5-1.72-2.56-1.16-1.06-2.92-1.62t-4.16-.56h-6.43v16.61ZM82.7 76.61h15.04q4.64 0 8.04 1.09 3.39 1.08 5.6 3.04 2.2 1.95 3.28 4.67 1.07 2.72 1.07 5.95 0 3.36-1.12 6.16-1.12 2.8-3.36 4.82-2.24 2.01-5.62 3.13-3.37 1.12-7.89 1.12h-6.43v16.29H82.7V76.61Zm45.35 15.42.48 3.71q1.53-2.94 3.65-4.62 2.11-1.68 4.99-1.68 2.27 0 3.65.99l-.52 5.92q-.16.58-.46.82-.3.24-.82.24-.48 0-1.42-.16t-1.84-.16q-1.31 0-2.34.38-1.02.39-1.84 1.11-.81.72-1.44 1.74-.62 1.02-1.16 2.34v20.22h-7.91V90.05h4.64q1.22 0 1.7.43t.64 1.55Zm31.42-2.49q3.65 0 6.64 1.18 2.99 1.18 5.12 3.36 2.13 2.18 3.28 5.31 1.15 3.14 1.15 7.01 0 3.9-1.15 7.04t-3.28 5.34q-2.13 2.21-5.12 3.4-2.99 1.18-6.64 1.18-3.68 0-6.69-1.18-3-1.19-5.13-3.4-2.13-2.2-3.3-5.34-1.17-3.14-1.17-7.04 0-3.87 1.17-7.01 1.17-3.13 3.3-5.31 2.13-2.18 5.13-3.36 3.01-1.18 6.69-1.18Zm0 27.74q4.1 0 6.07-2.75 1.96-2.75 1.96-8.07 0-5.31-1.96-8.09-1.97-2.79-6.07-2.79-4.16 0-6.16 2.8t-2 8.08q0 5.28 2 8.05 2 2.77 6.16 2.77Zm30.15 5.6h-7.91V90.05h4.83q1.54 0 2.02 1.44l.51 2.43q.87-.96 1.81-1.76.94-.8 2.02-1.38 1.07-.57 2.3-.91 1.23-.33 2.7-.33 3.11 0 5.11 1.68 2 1.68 2.99 4.46.77-1.63 1.92-2.8t2.53-1.9q1.37-.74 2.93-1.09 1.55-.35 3.12-.35 2.72 0 4.83.83t3.55 2.43q1.44 1.6 2.19 3.9.75 2.31.75 5.28v20.9h-7.9v-20.9q0-3.13-1.38-4.72-1.37-1.58-4.03-1.58-1.21 0-2.25.42-1.04.41-1.83 1.2-.78.78-1.23 1.96-.45 1.19-.45 2.72v20.9h-7.93v-20.9q0-3.29-1.33-4.8-1.33-1.5-3.89-1.5-1.73 0-3.22.85-1.48.85-2.76 2.32v24.03Zm60.22-33.34q3.65 0 6.64 1.18 2.99 1.18 5.12 3.36 2.13 2.18 3.28 5.31 1.15 3.14 1.15 7.01 0 3.9-1.15 7.04t-3.28 5.34q-2.13 2.21-5.12 3.4-2.99 1.18-6.64 1.18-3.68 0-6.69-1.18-3.01-1.19-5.13-3.4-2.13-2.2-3.3-5.34-1.17-3.14-1.17-7.04 0-3.87 1.17-7.01 1.17-3.13 3.3-5.31 2.12-2.18 5.13-3.36 3.01-1.18 6.69-1.18Zm0 27.74q4.1 0 6.06-2.75 1.97-2.75 1.97-8.07 0-5.31-1.97-8.09-1.96-2.79-6.06-2.79-4.16 0-6.16 2.8t-2 8.08q0 5.28 2 8.05 2 2.77 6.16 2.77Zm48.51-33.5-1.63 9.63q1.54-.32 2.94-.47 1.41-.14 2.72-.14 3.65 0 6.44 1.09 2.78 1.09 4.67 3.01 1.89 1.92 2.85 4.49.96 2.58.96 5.55 0 3.68-1.3 6.72-1.3 3.04-3.6 5.2t-5.46 3.35q-3.15 1.18-6.86 1.18-2.18 0-4.13-.45-1.95-.44-3.66-1.2-1.71-.75-3.17-1.72-1.46-.98-2.61-2.07l2.43-3.36q.77-1.09 2.02-1.09.8 0 1.63.52.83.51 1.91 1.12 1.07.6 2.52 1.12 1.46.51 3.51.51 2.17 0 3.84-.71 1.66-.7 2.77-1.96 1.1-1.27 1.66-3.01.56-1.75.56-3.79 0-3.78-2.19-5.91-2.19-2.13-6.48-2.13-3.3 0-6.75 1.22l-4.93-1.41 3.84-22.46h22.85v3.36q0 1.69-1.06 2.75t-3.58 1.06h-12.71Z"/></svg>