<svg xmlns="http://www.w3.org/2000/svg" width="400" height="400" viewBox="0 0 400 400"><rect width="100%" height="100%" fill="#DDDDDD"/><path fill="#999999" d="M96.905 187.2h4.26v26.03h-2.48q-.58 0-.96-.19-.39-.19-.75-.64l-13.59-17.35q.11 1.19.11 2.2v15.98h-4.27V187.2h2.54q.31 0 .53.03.23.03.4.11t.33.23q.16.15.36.41l13.64 17.42q-.05-.63-.09-1.24-.03-.61-.03-1.14V187.2Zm19.11 21.26v-3.11q-1.92.09-3.24.33-1.31.24-2.1.62t-1.14.88q-.34.51-.34 1.1 0 1.17.7 1.67.69.51 1.8.51 1.37 0 2.37-.5 1-.49 1.95-1.5Zm-9.39-9.7-.79-1.42q3.18-2.92 7.66-2.92 1.62 0 2.9.53 1.28.53 2.16 1.48.88.94 1.34 2.26.46 1.31.46 2.88v11.66h-2.01q-.63 0-.98-.19-.34-.19-.54-.76l-.39-1.34q-.7.63-1.37 1.11-.67.48-1.39.8-.72.33-1.53.5-.82.17-1.81.17-1.17 0-2.16-.32-.99-.31-1.71-.94-.72-.63-1.12-1.57-.4-.93-.4-2.18 0-.7.24-1.39.23-.69.76-1.32.53-.63 1.38-1.19.85-.56 2.08-.97 1.23-.42 2.87-.68 1.64-.26 3.74-.31v-1.08q0-1.86-.79-2.75-.79-.89-2.28-.89-1.08 0-1.79.25-.72.25-1.26.57-.54.31-.98.57-.44.25-.98.25-.47 0-.79-.25-.32-.24-.52-.56Zm30.18-2-1 1.6q-.18.29-.38.41-.2.11-.51.11-.32 0-.69-.18-.37-.18-.85-.4-.49-.23-1.11-.41-.62-.18-1.47-.18-1.31 0-2.06.56t-.75 1.46q0 .59.39 1 .39.4 1.03.71.64.31 1.45.55.81.24 1.64.53.84.29 1.65.66.81.37 1.45.93.64.57 1.03 1.36.38.79.38 1.91 0 1.33-.47 2.46-.48 1.12-1.42 1.94-.93.82-2.31 1.28-1.38.46-3.18.46-.95 0-1.86-.17-.91-.17-1.75-.48-.83-.31-1.54-.72-.72-.41-1.26-.9l1.03-1.69q.2-.31.47-.47.27-.16.68-.16.42 0 .79.23.36.24.85.51t1.14.5q.66.23 1.67.23.79 0 1.36-.19.56-.18.93-.49t.54-.71q.17-.41.17-.84 0-.65-.38-1.06-.39-.41-1.03-.72t-1.46-.55q-.82-.24-1.67-.53-.86-.29-1.67-.68-.82-.38-1.46-.98-.64-.59-1.03-1.45-.39-.87-.39-2.09 0-1.14.45-2.16.45-1.03 1.33-1.79.87-.77 2.18-1.23 1.3-.46 3.01-.46 1.91 0 3.47.63 1.57.63 2.61 1.66Zm3.69-2h4.47v18.47h-4.47v-18.47Zm5.08-5.38q0 .58-.23 1.08-.24.5-.62.88-.39.38-.91.6-.53.23-1.12.23-.58 0-1.09-.23-.51-.22-.89-.6t-.6-.88q-.23-.5-.23-1.08 0-.59.23-1.12.22-.52.6-.9.38-.37.89-.6.51-.22 1.09-.22.59 0 1.12.22.52.23.91.6.38.38.62.9.23.53.23 1.12Zm18.22 10.91h3.61q1.34 0 2.33-.34.99-.33 1.64-.95.66-.62.98-1.51.33-.89.33-1.99 0-1.04-.33-1.89-.32-.85-.97-1.44-.65-.59-1.64-.91-.99-.31-2.34-.31h-3.61v9.34Zm-4.85-13.09h8.46q2.61 0 4.52.61 1.91.62 3.15 1.71 1.24 1.1 1.85 2.63.6 1.53.6 3.35 0 1.89-.63 3.46-.63 1.58-1.89 2.71-1.26 1.14-3.16 1.77-1.9.63-4.44.63h-3.61v9.16h-4.85V187.2Zm25.1 14.67h8.38q0-.86-.24-1.63-.24-.76-.73-1.34-.48-.57-1.23-.91-.75-.33-1.74-.33-1.92 0-3.03 1.1-1.11 1.1-1.41 3.11Zm11.34 2.68h-11.43q.1 1.43.5 2.46.4 1.04 1.04 1.71.65.68 1.54 1.01.89.33 1.97.33t1.87-.25q.78-.25 1.37-.56.58-.3 1.02-.56.44-.25.86-.25.55 0 .82.42l1.28 1.62q-.73.86-1.65 1.44-.92.59-1.92.94-1 .35-2.03.5-1.04.14-2.01.14-1.93 0-3.58-.64-1.66-.64-2.88-1.89-1.23-1.25-1.93-3.1-.7-1.84-.7-4.27 0-1.89.61-3.56.61-1.66 1.76-2.89 1.14-1.24 2.79-1.96 1.64-.72 3.71-.72 1.75 0 3.22.56 1.48.56 2.54 1.63 1.06 1.07 1.67 2.63.6 1.56.6 3.55 0 1.01-.21 1.36-.22.35-.83.35Zm18.77-7.5-1.17 1.62q-.2.25-.39.39-.18.15-.54.15-.35 0-.67-.21-.32-.21-.77-.47t-1.08-.47q-.62-.2-1.53-.2-1.17 0-2.06.42-.88.42-1.46 1.22-.59.79-.88 1.91-.28 1.13-.28 2.55 0 1.48.31 2.63.32 1.15.91 1.93.59.79 1.44 1.19.85.41 1.91.41t1.72-.27q.65-.26 1.1-.57.45-.32.79-.58.33-.26.74-.26.54 0 .81.42l1.28 1.62q-.74.86-1.6 1.44-.86.59-1.79.94t-1.91.5q-.98.14-1.95.14-1.71 0-3.22-.64-1.52-.64-2.65-1.86-1.13-1.23-1.79-3-.66-1.77-.66-4.04 0-2.03.59-3.77.58-1.74 1.72-3.01 1.13-1.27 2.8-1.99 1.68-.72 3.86-.72 2.07 0 3.62.67 1.56.67 2.8 1.91Zm6.46 4.82h8.39q0-.86-.24-1.63-.24-.76-.73-1.34-.49-.57-1.23-.91-.75-.33-1.74-.33-1.93 0-3.03 1.1-1.11 1.1-1.42 3.11Zm11.34 2.68h-11.43q.11 1.43.51 2.46.39 1.04 1.04 1.71.65.68 1.54 1.01.89.33 1.97.33t1.86-.25q.79-.25 1.37-.56.59-.3 1.03-.56.44-.25.85-.25.56 0 .83.42l1.28 1.62q-.74.86-1.66 1.44-.91.59-1.91.94-1 .35-2.04.5-1.03.14-2 .14-1.93 0-3.59-.64-1.65-.64-2.88-1.89-1.22-1.25-1.92-3.1-.7-1.84-.7-4.27 0-1.89.61-3.56.61-1.66 1.75-2.89 1.15-1.24 2.79-1.96 1.65-.72 3.72-.72 1.75 0 3.22.56 1.48.56 2.54 1.63 1.06 1.07 1.66 2.63.61 1.56.61 3.55 0 1.01-.22 1.36-.21.35-.83.35Zm4.43-18.07h4.45v26.75h-4.45v-26.75Zm29.4 23.42h4.68v3.33h-14.4v-3.33h5.27v-15.17q0-.9.05-1.86l-3.74 3.13q-.32.26-.64.32-.31.06-.59.01-.28-.06-.5-.19-.21-.14-.32-.3l-1.41-1.92 7.94-6.75h3.66v22.73Zm26.91-9.68q0 3.4-.73 5.91-.73 2.51-2.02 4.15-1.29 1.64-3.04 2.44-1.76.8-3.79.8-2.03 0-3.77-.8-1.74-.8-3.02-2.44-1.27-1.64-1.99-4.15-.72-2.51-.72-5.91 0-3.42.72-5.93.72-2.5 1.99-4.14 1.28-1.63 3.02-2.44 1.74-.8 3.77-.8 2.03 0 3.79.8 1.75.81 3.04 2.44 1.29 1.64 2.02 4.14.73 2.51.73 5.93Zm-4.59 0q0-2.83-.42-4.68-.41-1.86-1.11-2.96-.69-1.09-1.59-1.54-.9-.44-1.87-.44-.95 0-1.85.44-.89.45-1.57 1.54-.68 1.1-1.09 2.96-.4 1.85-.4 4.68 0 2.82.4 4.68.41 1.85 1.09 2.95.68 1.1 1.57 1.54.9.44 1.85.44.97 0 1.87-.44.9-.44 1.59-1.54.7-1.1 1.11-2.95.42-1.86.42-4.68Zm7.03 10.56q0-.56.21-1.06t.57-.86q.36-.36.86-.58.51-.22 1.08-.22.58 0 1.07.22.5.22.87.58t.58.86q.22.5.22 1.06 0 .58-.22 1.07-.21.5-.58.86t-.87.57q-.49.2-1.07.2-.57 0-1.08-.2-.5-.21-.86-.57t-.57-.86q-.21-.49-.21-1.07Zm20.96-.88h4.68v3.33h-14.4v-3.33h5.27v-15.17q0-.9.05-1.86l-3.74 3.13q-.32.26-.64.32-.31.06-.59.01-.28-.06-.5-.19-.21-.14-.32-.3l-1.41-1.92 7.94-6.75h3.66v22.73Z"/></svg>