<svg xmlns="http://www.w3.org/2000/svg" width="400" height="200" viewBox="0 0 400 200"><rect width="100%" height="100%" fill="#DDDDDD"/><path fill="#999999" d="M97.56 66.945v66.52H85.14v-66.52h12.42Zm22.9 21.39.79 3.73q1.42-1.43 3.01-2.65 1.59-1.21 3.36-2.07 1.77-.85 3.79-1.33 2.03-.48 4.42-.48 3.86 0 6.85 1.31 2.99 1.31 4.99 3.68t3.04 5.66q1.03 3.29 1.03 7.24v30.04h-11.36v-30.04q0-4.32-1.98-6.69-1.97-2.37-6.02-2.37-2.95 0-5.52 1.33-2.58 1.34-4.88 3.64v34.13h-11.36v-47.2h6.95q2.2 0 2.89 2.07Zm56.72 45.13h-11.36v-38.64l-4.09-.64q-1.34-.28-2.14-.95-.81-.66-.81-1.91v-4.64h7.04v-3.5q0-4.05 1.22-7.27 1.22-3.22 3.5-5.47 2.27-2.25 5.54-3.45 3.26-1.2 7.36-1.2 3.26 0 6.07.88l-.23 5.7q-.05.65-.37 1.04t-.85.6q-.53.2-1.22.27t-1.47.07q-2.02 0-3.61.44-1.59.43-2.69 1.51-1.11 1.09-1.68 2.86-.58 1.77-.58 4.39v3.13h12.29v8.09h-11.92v38.69Zm39.19-47.93q5.25 0 9.55 1.7 4.3 1.7 7.36 4.83 3.06 3.13 4.71 7.64 1.66 4.5 1.66 10.07 0 5.61-1.66 10.12-1.65 4.51-4.71 7.68-3.06 3.18-7.36 4.88-4.3 1.7-9.55 1.7-5.29 0-9.61-1.7-4.32-1.7-7.38-4.88-3.06-3.17-4.74-7.68-1.68-4.51-1.68-10.12 0-5.57 1.68-10.07 1.68-4.51 4.74-7.64 3.06-3.13 7.38-4.83 4.32-1.7 9.61-1.7Zm0 39.88q5.89 0 8.72-3.96 2.83-3.95 2.83-11.59 0-7.63-2.83-11.64-2.83-4-8.72-4-5.98 0-8.85 4.03-2.88 4.02-2.88 11.61t2.88 11.57q2.87 3.98 8.85 3.98Zm75.4-.09q2.8 0 4.92-.81 2.12-.8 3.57-2.23 1.44-1.42 2.18-3.4.74-1.98.74-4.28 0-5.47-3.04-8.28-3.04-2.81-8.37-2.81-5.34 0-8.37 2.81-3.04 2.81-3.04 8.28 0 2.3.74 4.28.73 1.98 2.18 3.4 1.45 1.43 3.57 2.23 2.11.81 4.92.81Zm0-50.56q-2.53 0-4.37.79-1.84.78-3.06 2.09-1.22 1.31-1.79 3.01-.58 1.7-.58 3.59 0 1.98.48 3.84.49 1.86 1.64 3.31t3.03 2.33q1.89.87 4.65.87 2.76 0 4.64-.87 1.89-.88 3.04-2.33 1.15-1.45 1.63-3.31.49-1.86.49-3.84 0-1.89-.6-3.59t-1.8-3.01q-1.19-1.31-3.03-2.09-1.84-.79-4.37-.79Zm11.22 24.02q6.07 1.97 8.97 6.05 2.9 4.07 2.9 9.95 0 4.42-1.68 8.01t-4.71 6.12q-3.04 2.53-7.29 3.91-4.26 1.38-9.41 1.38t-9.41-1.38q-4.25-1.38-7.29-3.91-3.04-2.53-4.71-6.12-1.68-3.59-1.68-8.01 0-5.88 2.89-9.95 2.9-4.08 8.97-6.05-4.83-2.03-7.24-5.75-2.42-3.73-2.42-8.97 0-3.78 1.55-7.04 1.54-3.27 4.3-5.68 2.76-2.42 6.6-3.77 3.84-1.36 8.44-1.36t8.44 1.36q3.84 1.35 6.6 3.77 2.76 2.41 4.3 5.68 1.54 3.26 1.54 7.04 0 5.24-2.41 8.97-2.42 3.72-7.25 5.75Z"/></svg>