<svg xmlns="http://www.w3.org/2000/svg" width="400" height="400" viewBox="0 0 400 400"><rect width="100%" height="100%" fill="#DDDDDD"/><path fill="#999999" d="M99.04 186.135h4.63v28.2h-2.69q-.63 0-1.05-.2-.42-.21-.81-.7l-14.72-18.8q.12 1.29.12 2.38v17.32H79.9v-28.2h2.75q.33 0 .57.03.24.03.43.12.18.09.36.25.18.17.39.44l14.78 18.88q-.06-.68-.1-1.35-.04-.66-.04-1.23v-17.14Zm20.71 23.03v-3.37q-2.08.1-3.51.36-1.42.26-2.28.67-.86.41-1.23.96-.37.54-.37 1.19 0 1.27.75 1.81.75.55 1.96.55 1.49 0 2.57-.54 1.08-.54 2.11-1.63Zm-10.18-10.51-.85-1.54q3.45-3.16 8.3-3.16 1.76 0 3.14.58 1.39.57 2.34 1.6.96 1.02 1.46 2.44.49 1.43.49 3.12v12.64h-2.18q-.68 0-1.05-.2-.37-.21-.59-.83l-.43-1.45q-.76.69-1.48 1.2-.72.52-1.5.87t-1.67.54q-.89.18-1.96.18-1.27 0-2.34-.34-1.07-.34-1.85-1.02-.78-.69-1.21-1.7-.43-1.01-.43-2.36 0-.76.25-1.51.26-.75.83-1.43.58-.69 1.5-1.29.91-.61 2.25-1.05 1.33-.45 3.11-.73 1.77-.29 4.05-.35v-1.17q0-2-.85-2.97-.86-.96-2.48-.96-1.17 0-1.94.27t-1.36.61l-1.06.62q-.48.27-1.06.27-.51 0-.86-.26-.35-.27-.57-.62Zm32.71-2.16-1.1 1.73q-.19.32-.41.44-.21.13-.54.13-.35 0-.75-.2l-.93-.44q-.52-.24-1.2-.43-.67-.2-1.59-.2-1.42 0-2.23.61-.81.6-.81 1.57 0 .65.42 1.09.42.44 1.11.77.69.33 1.57.59.88.27 1.79.58.9.31 1.78.71.88.4 1.57 1.01.69.62 1.11 1.48.42.85.42 2.06 0 1.45-.52 2.66-.51 1.22-1.53 2.11-1.01.89-2.5 1.38-1.49.5-3.44.5-1.04 0-2.02-.18-.99-.19-1.89-.52-.91-.33-1.68-.78-.77-.45-1.36-.98l1.12-1.83q.21-.33.5-.51.29-.17.74-.17t.85.25q.4.26.93.55.52.29 1.24.55.71.25 1.8.25.86 0 1.47-.21.62-.2 1.02-.53t.58-.77q.19-.44.19-.91 0-.7-.42-1.15-.42-.45-1.11-.78-.7-.33-1.58-.59-.89-.27-1.82-.58-.92-.31-1.81-.73t-1.58-1.06q-.69-.65-1.11-1.58-.42-.94-.42-2.27 0-1.22.49-2.34.48-1.11 1.43-1.94.95-.82 2.36-1.32 1.41-.5 3.27-.5 2.06 0 3.76.68 1.7.69 2.83 1.8Zm3.99-2.17h4.84v20.01h-4.84v-20.01Zm5.5-5.83q0 .63-.25 1.17-.25.55-.67.96-.42.41-.99.65-.56.24-1.21.24-.62 0-1.18-.24-.55-.24-.96-.65-.41-.41-.66-.96-.24-.54-.24-1.17 0-.64.24-1.21.25-.56.66-.97.41-.41.96-.65.56-.25 1.18-.25.65 0 1.21.25.57.24.99.65.42.41.67.97.25.57.25 1.21Zm19.74 11.82h3.92q1.44 0 2.51-.36 1.07-.36 1.79-1.03.71-.68 1.06-1.64.35-.97.35-2.16 0-1.13-.35-2.04-.35-.92-1.05-1.57-.71-.64-1.78-.98-1.07-.34-2.53-.34h-3.92v10.12Zm-5.25-14.18h9.17q2.82 0 4.89.67 2.07.66 3.41 1.85 1.35 1.19 2 2.85.66 1.65.66 3.62 0 2.05-.69 3.76-.68 1.7-2.04 2.93-1.37 1.23-3.43 1.91-2.05.68-4.8.68h-3.92v9.93h-5.25v-28.2Zm27.18 15.9h9.09q0-.94-.26-1.77-.27-.83-.79-1.45-.53-.63-1.34-.99t-1.88-.36q-2.09 0-3.29 1.19-1.19 1.19-1.53 3.38Zm12.29 2.9h-12.38q.11 1.54.54 2.66.43 1.12 1.13 1.86.71.73 1.67 1.09.97.36 2.14.36 1.17 0 2.01-.28.85-.27 1.49-.6.63-.33 1.11-.6.48-.28.92-.28.61 0 .9.45l1.39 1.76q-.8.93-1.8 1.57-.99.63-2.08 1.01-1.08.38-2.2.54-1.12.15-2.17.15-2.09 0-3.88-.69-1.8-.69-3.12-2.05-1.33-1.35-2.09-3.35-.76-2-.76-4.63 0-2.05.66-3.85.67-1.81 1.9-3.14 1.24-1.34 3.03-2.12 1.78-.78 4.02-.78 1.89 0 3.49.61 1.6.6 2.75 1.76 1.15 1.16 1.81 2.85.65 1.68.65 3.85 0 1.09-.23 1.47-.24.38-.9.38Zm20.34-8.13-1.27 1.75q-.21.28-.42.43-.2.16-.59.16-.37 0-.73-.22-.35-.23-.83-.51-.49-.28-1.16-.51-.68-.22-1.67-.22-1.27 0-2.22.46-.96.45-1.59 1.31-.64.86-.95 2.08-.31 1.22-.31 2.76 0 1.6.34 2.84.34 1.25.98 2.1.65.85 1.56 1.29.92.44 2.07.44t1.86-.29q.72-.28 1.2-.62.49-.34.85-.62.36-.29.81-.29.59 0 .88.45l1.38 1.76q-.8.93-1.73 1.57-.94.63-1.94 1.01-1.01.38-2.07.54-1.06.15-2.12.15-1.85 0-3.49-.69-1.63-.69-2.86-2.02-1.23-1.32-1.94-3.24-.71-1.93-.71-4.38 0-2.21.63-4.09t1.86-3.25q1.23-1.38 3.04-2.16 1.82-.78 4.18-.78 2.24 0 3.93.72 1.68.72 3.03 2.07Zm7 5.23h9.09q0-.94-.27-1.77-.26-.83-.79-1.45-.52-.63-1.33-.99t-1.89-.36q-2.08 0-3.28 1.19-1.2 1.19-1.53 3.38Zm12.28 2.9h-12.38q.12 1.54.55 2.66.43 1.12 1.13 1.86.7.73 1.66 1.09.97.36 2.14.36 1.17 0 2.02-.28.85-.27 1.48-.6.63-.33 1.11-.6.48-.28.93-.28.6 0 .9.45l1.38 1.76q-.8.93-1.79 1.57-1 .63-2.08 1.01t-2.2.54q-1.13.15-2.18.15-2.09 0-3.88-.69t-3.12-2.05q-1.33-1.35-2.09-3.35-.76-2-.76-4.63 0-2.05.67-3.85.66-1.81 1.9-3.14 1.24-1.34 3.02-2.12t4.03-.78q1.89 0 3.49.61 1.6.6 2.75 1.76 1.15 1.16 1.8 2.85.65 1.68.65 3.85 0 1.09-.23 1.47-.23.38-.9.38Zm4.8-19.58h4.82v28.98h-4.82v-28.98Zm23.17 9.25q0 2.36 1.21 3.59 1.22 1.24 3.47 1.24 1.17 0 2.08-.37.92-.37 1.54-1.01.63-.65.95-1.52.32-.88.32-1.9 0-1.15-.35-2.05-.35-.91-.99-1.53-.65-.63-1.54-.96-.88-.33-1.94-.33-1.09 0-1.97.36-.87.36-1.5 1.01-.62.64-.95 1.53-.33.88-.33 1.94Zm-2.36 19.73 8.75-10.94q.33-.41.63-.8.29-.39.56-.78-.97.63-2.14.95-1.17.32-2.46.32-1.46 0-2.87-.51-1.4-.51-2.49-1.53-1.09-1.02-1.77-2.53-.67-1.52-.67-3.54 0-1.89.7-3.55t1.97-2.91q1.27-1.25 3.04-1.97 1.78-.72 3.92-.72 2.17 0 3.89.68 1.73.69 2.95 1.91 1.22 1.23 1.87 2.95.65 1.72.65 3.76 0 1.31-.22 2.48-.23 1.17-.64 2.25-.4 1.08-.99 2.12-.58 1.03-1.31 2.04l-6.45 9.21q-.33.47-1 .79-.66.32-1.5.32h-4.42Zm20.22-2.65q0-.61.22-1.15.23-.55.62-.94.39-.39.93-.62.55-.24 1.17-.24.63 0 1.16.24.54.23.94.62.4.39.63.94.24.54.24 1.15 0 .62-.24 1.16-.23.53-.63.92t-.94.62q-.53.22-1.16.22-.62 0-1.17-.22-.54-.23-.93-.62t-.62-.92q-.22-.54-.22-1.16Zm26.13-25.55-8.37 10.24-.97 1.21q.82-.41 1.76-.63.95-.23 2.04-.23 1.6 0 3.11.53 1.51.52 2.66 1.59 1.15 1.06 1.85 2.64.71 1.58.71 3.69 0 1.96-.72 3.69-.73 1.73-2.03 3.01-1.31 1.29-3.15 2.03-1.84.74-4.07.74-2.26 0-4.05-.72-1.8-.72-3.07-2.02-1.26-1.29-1.94-3.12-.67-1.82-.67-4.04 0-1.99.81-4.09.81-2.1 2.51-4.36l6.72-9.03q.36-.46 1.03-.8.67-.33 1.55-.33h4.29Zm-7.28 24.57q1.16 0 2.12-.39.97-.39 1.66-1.09.69-.7 1.08-1.65.39-.94.39-2.05 0-1.21-.37-2.18-.37-.96-1.05-1.64-.69-.67-1.64-1.02-.96-.35-2.11-.35t-2.08.39q-.94.39-1.6 1.08-.67.69-1.04 1.64-.37.94-.37 2.04 0 1.17.32 2.13.33.97.96 1.65.63.68 1.57 1.06.94.38 2.16.38Z"/></svg>