<svg xmlns="http://www.w3.org/2000/svg" width="100" height="100" viewBox="0 0 100 100"><rect width="100%" height="100%" fill="#DDDDDD"/><path fill="#999999" d="M27.2 45.38h1.54v9.4h-.89q-.21 0-.35-.07-.14-.07-.27-.23l-4.91-6.27q.04.43.04.8v5.77h-1.54v-9.4h.92q.11 0 .19.01t.14.04q.06.03.12.08.06.06.13.15l4.93 6.29-.04-.45q-.01-.22-.01-.41v-5.71Zm6.9 7.68v-1.13q-.69.04-1.17.12-.47.09-.76.23-.28.13-.41.32-.12.18-.12.39 0 .42.25.61.25.18.65.18.5 0 .86-.18t.7-.54Zm-3.39-3.51-.28-.51q1.15-1.05 2.76-1.05.59 0 1.05.19.46.19.78.53t.49.82q.16.47.16 1.04v4.21h-.73q-.22 0-.35-.07-.12-.07-.19-.27l-.15-.49q-.25.23-.49.4-.24.18-.5.29-.26.12-.56.18-.29.06-.65.06-.42 0-.78-.11-.36-.11-.62-.34-.26-.23-.4-.57-.14-.33-.14-.78 0-.26.08-.51.09-.25.28-.47.19-.23.5-.43.3-.21.75-.35.44-.15 1.03-.25.59-.09 1.35-.11v-.39q0-.67-.28-.99-.29-.33-.83-.33-.39 0-.64.1-.26.09-.46.2-.19.11-.35.21-.16.09-.35.09-.17 0-.29-.09-.12-.09-.19-.21Zm10.9-.72-.36.58q-.07.1-.14.15-.07.04-.18.04-.12 0-.25-.07-.13-.06-.31-.14-.17-.08-.4-.15-.22-.06-.53-.06-.47 0-.74.2t-.27.52q0 .22.14.37.14.14.37.25.23.11.52.2.29.09.6.19.3.11.59.24t.52.34q.23.2.37.49.14.28.14.69 0 .48-.17.88-.17.41-.51.71-.34.29-.83.46-.5.16-1.15.16-.35 0-.67-.06-.33-.06-.63-.17-.31-.11-.56-.26-.26-.15-.46-.33l.38-.61q.07-.11.16-.17.1-.05.25-.05t.28.08q.14.09.31.18.18.1.42.18.23.09.6.09.28 0 .49-.07.2-.07.34-.18.13-.11.19-.25.06-.15.06-.31 0-.23-.14-.38t-.37-.26q-.23-.11-.52-.2-.3-.09-.61-.19t-.6-.24q-.3-.14-.53-.36-.23-.21-.37-.52-.14-.32-.14-.76 0-.41.16-.78.16-.37.48-.65.32-.27.79-.44.47-.16 1.09-.16.68 0 1.25.22.57.23.94.6Zm1.33-.72h1.62v6.67h-1.62v-6.67Zm1.84-1.94q0 .21-.09.39-.08.18-.22.32-.14.13-.33.21-.19.08-.4.08-.21 0-.4-.08-.18-.08-.32-.21-.13-.14-.22-.32-.08-.18-.08-.39 0-.22.08-.41.09-.18.22-.32.14-.14.32-.22.19-.08.4-.08.21 0 .4.08.19.08.33.22t.22.32q.09.19.09.41Zm6.58 3.94h1.3q.48 0 .84-.12t.6-.35q.23-.22.35-.54.12-.33.12-.72 0-.38-.12-.69-.12-.3-.35-.52-.24-.21-.59-.32-.36-.12-.85-.12h-1.3v3.38Zm-1.75-4.73h3.05q.94 0 1.63.22t1.14.62q.45.4.67.95.22.55.22 1.21 0 .68-.23 1.25t-.68.98q-.46.41-1.15.63-.68.23-1.6.23h-1.3v3.31h-1.75v-9.4Zm9.06 5.3h3.03q0-.31-.09-.59-.09-.28-.26-.48-.18-.21-.45-.33-.27-.12-.63-.12-.69 0-1.09.39-.4.4-.51 1.13Zm4.09.97h-4.12q.03.51.18.88.14.38.37.62.24.25.56.37.32.12.71.12.39 0 .67-.1.29-.09.5-.2.21-.11.37-.2.16-.09.31-.09.2 0 .3.15l.46.59q-.27.31-.6.52-.33.21-.69.34-.36.12-.74.18-.37.05-.72.05-.7 0-1.29-.23-.6-.23-1.04-.69-.45-.45-.7-1.11-.25-.67-.25-1.55 0-.68.22-1.28t.63-1.05q.41-.44 1.01-.7.59-.26 1.34-.26.63 0 1.16.2.54.2.92.59.38.38.6.95.22.56.22 1.28 0 .36-.08.49t-.3.13Zm6.78-2.71-.42.58q-.07.09-.14.14-.07.06-.2.06-.12 0-.24-.08-.12-.07-.28-.17-.16-.09-.38-.17-.23-.07-.56-.07-.42 0-.74.15t-.53.44q-.21.29-.32.69-.1.41-.1.92 0 .54.11.95.12.42.33.7.22.28.52.43.31.15.69.15.38 0 .62-.1.24-.09.4-.21.16-.11.28-.2.12-.1.27-.1.2 0 .3.15l.46.59q-.27.31-.58.52-.31.21-.65.34-.33.12-.69.18-.35.05-.7.05-.62 0-1.17-.23-.54-.23-.95-.68-.41-.44-.65-1.08-.23-.64-.23-1.46 0-.73.21-1.36.21-.63.62-1.08.41-.46 1.01-.72.61-.26 1.39-.26.75 0 1.31.24t1.01.69Zm2.34 1.74h3.03q0-.31-.09-.59-.09-.28-.27-.48-.17-.21-.44-.33-.27-.12-.63-.12-.69 0-1.09.39-.4.4-.51 1.13Zm4.09.97h-4.13q.04.51.19.88.14.38.37.62.24.25.56.37.32.12.71.12.39 0 .67-.1.29-.09.5-.2.21-.11.37-.2.16-.09.31-.09.2 0 .3.15l.46.59q-.27.31-.6.52-.33.21-.69.34-.36.12-.74.18-.37.05-.72.05-.7 0-1.3-.23-.59-.23-1.04-.69-.44-.45-.69-1.11-.26-.67-.26-1.55 0-.68.23-1.28.22-.6.63-1.05.41-.44 1.01-.7.59-.26 1.34-.26.63 0 1.16.2.54.2.92.59.38.38.6.95.22.56.22 1.28 0 .36-.08.49t-.3.13Zm1.6-6.53h1.61v9.66h-1.61v-9.66Z"/></svg>