<svg xmlns="http://www.w3.org/2000/svg" width="150" height="150" viewBox="0 0 150 150"><rect width="100%" height="100%" fill="#DDDDDD"/><path fill="#999999" d="M37.89 69.67h1.78v10.84h-1.04q-.24 0-.4-.08-.16-.08-.31-.26l-5.66-7.23q.04.49.04.91v6.66h-1.77V69.67h1.05q.13 0 .22.01.1.01.17.04.07.04.14.1.06.06.15.17l5.68 7.26-.04-.52q-.01-.26-.01-.47v-6.59Zm7.96 8.85v-1.29q-.8.03-1.35.13-.54.11-.87.26-.33.16-.48.37-.14.21-.14.46 0 .49.29.7.29.2.75.2.57 0 .99-.2.42-.21.81-.63Zm-3.91-4.04-.33-.59q1.33-1.22 3.19-1.22.68 0 1.21.22.53.23.9.62t.56.94q.19.55.19 1.2v4.86h-.84q-.26 0-.4-.08-.15-.08-.23-.32l-.16-.55q-.3.26-.57.46-.28.2-.58.33-.3.14-.64.21-.34.07-.76.07-.48 0-.9-.13-.41-.13-.71-.39-.3-.27-.46-.66-.17-.39-.17-.9 0-.3.1-.59.1-.28.32-.55.22-.26.57-.49.35-.23.87-.41.51-.17 1.19-.28.69-.11 1.56-.13v-.45q0-.77-.33-1.14-.33-.38-.95-.38-.45 0-.74.11-.3.1-.53.24-.22.13-.4.23-.19.11-.41.11-.2 0-.33-.1-.14-.1-.22-.24Zm12.58-.83-.42.67q-.08.11-.16.16t-.21.05q-.14 0-.29-.07-.15-.08-.36-.17-.2-.09-.46-.17-.26-.07-.61-.07-.55 0-.86.23-.31.23-.31.6 0 .25.16.42.16.17.43.3.27.12.6.23.34.1.69.22.35.12.69.27.33.15.6.39.27.24.43.57.16.33.16.79 0 .56-.2 1.03t-.59.81q-.39.34-.96.53-.58.19-1.33.19-.39 0-.77-.07t-.73-.2q-.35-.13-.64-.3-.3-.17-.53-.37l.43-.71q.08-.13.2-.19.11-.07.28-.07.17 0 .33.1l.35.21q.21.11.48.21.27.09.69.09.33 0 .57-.08.24-.07.39-.2.15-.13.23-.3.07-.17.07-.35 0-.27-.16-.44-.17-.17-.43-.3-.27-.13-.61-.23-.34-.1-.7-.22-.35-.12-.69-.28-.35-.16-.61-.41-.27-.25-.43-.61-.16-.36-.16-.87 0-.47.19-.9.18-.42.55-.74.36-.32.91-.51.54-.19 1.25-.19.8 0 1.45.26.65.26 1.09.69Zm1.53-.83h1.86v7.69h-1.86v-7.69Zm2.12-2.25q0 .24-.1.45-.1.21-.26.37t-.38.25q-.21.09-.46.09-.24 0-.45-.09-.22-.09-.38-.25-.15-.16-.25-.37-.09-.21-.09-.45 0-.25.09-.46.1-.22.25-.38.16-.15.38-.25.21-.09.45-.09.25 0 .46.09.22.1.38.25.16.16.26.38.1.21.1.46Zm7.59 4.55h1.51q.55 0 .96-.14.42-.14.69-.4.27-.26.41-.63.13-.37.13-.83 0-.43-.13-.78-.14-.36-.41-.61-.27-.24-.68-.37-.41-.14-.97-.14h-1.51v3.9Zm-2.02-5.45h3.53q1.08 0 1.88.25.79.26 1.31.71.52.46.77 1.1.25.64.25 1.39 0 .79-.26 1.45-.26.65-.79 1.13-.52.47-1.31.73-.8.26-1.85.26h-1.51v3.82h-2.02V69.67Zm10.46 6.11h3.49q0-.36-.1-.68-.1-.32-.3-.56-.21-.24-.52-.38-.31-.14-.72-.14-.8 0-1.26.46-.47.46-.59 1.3Zm4.72 1.12h-4.76q.04.59.21 1.02.16.43.43.71.27.28.65.42.37.14.82.14.45 0 .77-.11.33-.1.57-.23.25-.12.43-.23.18-.1.36-.1.23 0 .34.17l.53.67q-.3.36-.69.61-.38.24-.79.39-.42.14-.85.2t-.84.06q-.8 0-1.49-.26-.69-.27-1.2-.79t-.8-1.29q-.3-.77-.3-1.78 0-.79.26-1.48.25-.7.73-1.21t1.16-.81q.69-.3 1.55-.3.73 0 1.34.23.62.23 1.06.68.44.44.7 1.09.25.65.25 1.48 0 .42-.09.57-.09.15-.35.15Zm7.82-3.13-.48.67q-.09.11-.16.17-.08.06-.23.06-.15 0-.28-.09-.14-.08-.32-.19-.19-.11-.45-.2-.26-.08-.64-.08-.49 0-.86.17-.36.18-.61.51-.24.33-.36.8-.12.46-.12 1.06 0 .61.13 1.09.13.48.38.81.25.32.6.49.35.17.79.17.45 0 .72-.11.27-.1.46-.24.19-.13.33-.24.14-.1.31-.1.22 0 .34.17l.53.67q-.31.36-.67.61-.36.24-.74.39-.39.14-.8.2-.41.06-.81.06-.72 0-1.35-.26-.63-.27-1.1-.78-.47-.51-.74-1.25-.28-.74-.28-1.68 0-.85.25-1.57.24-.73.71-1.26.47-.52 1.17-.82.7-.3 1.61-.3.86 0 1.51.27.65.28 1.16.8Zm2.7 2.01h3.49q0-.36-.1-.68-.1-.32-.3-.56-.21-.24-.52-.38-.31-.14-.72-.14-.8 0-1.26.46-.47.46-.59 1.3Zm4.72 1.12H89.4q.04.59.21 1.02.16.43.43.71.27.28.65.42.37.14.82.14.45 0 .77-.11.33-.1.57-.23.25-.12.43-.23.18-.1.36-.1.23 0 .34.17l.53.67q-.3.36-.69.61-.38.24-.79.39-.42.14-.85.2t-.84.06q-.8 0-1.49-.26-.69-.27-1.2-.79t-.8-1.29q-.3-.77-.3-1.78 0-.79.26-1.48.25-.7.73-1.21T89.7 73q.69-.3 1.55-.3.73 0 1.34.23.62.23 1.06.68.44.44.7 1.09.25.65.25 1.48 0 .42-.09.57-.09.15-.35.15Zm1.85-7.53h1.85v11.14h-1.85V69.37Zm12.24 9.75h1.95v1.39h-6v-1.39h2.2V72.8q0-.37.02-.77l-1.56 1.3q-.13.11-.26.13-.13.03-.25.01-.12-.02-.21-.08t-.13-.13l-.59-.8 3.31-2.81h1.52v9.47Zm11.22-4.03q0 1.42-.31 2.46-.3 1.05-.84 1.73-.53.68-1.26 1.02-.74.33-1.58.33-.85 0-1.57-.33-.73-.34-1.26-1.02-.53-.68-.83-1.73-.3-1.04-.3-2.46 0-1.43.3-2.47.3-1.04.83-1.73.53-.68 1.26-1.01.72-.33 1.57-.33.84 0 1.58.33.73.33 1.26 1.01.54.69.84 1.73.31 1.04.31 2.47Zm-1.92 0q0-1.18-.17-1.95t-.46-1.23q-.29-.46-.66-.64-.38-.19-.78-.19t-.77.19q-.37.18-.66.64-.28.46-.45 1.23-.17.77-.17 1.95 0 1.17.17 1.95.17.77.45 1.23.29.46.66.64.37.18.77.18t.78-.18q.37-.18.66-.64.29-.46.46-1.23.17-.78.17-1.95Z"/></svg>