<svg xmlns="http://www.w3.org/2000/svg" width="400" height="400" viewBox="0 0 400 400"><rect width="100%" height="100%" fill="#DDDDDD"/><path fill="#999999" d="M99.615 186.135h4.63v28.2h-2.69q-.63 0-1.05-.2-.42-.21-.81-.7l-14.72-18.8q.12 1.29.12 2.38v17.32h-4.62v-28.2h2.75q.33 0 .57.03.24.03.43.12.18.09.36.25.18.17.39.44l14.78 18.88q-.06-.68-.1-1.35-.04-.66-.04-1.23v-17.14Zm20.71 23.03v-3.37q-2.08.1-3.51.36-1.42.26-2.28.67-.86.41-1.23.96-.37.54-.37 1.19 0 1.27.75 1.81.75.55 1.96.55 1.49 0 2.57-.54 1.08-.54 2.11-1.63Zm-10.18-10.51-.85-1.54q3.45-3.16 8.3-3.16 1.76 0 3.14.58 1.39.57 2.34 1.6.96 1.02 1.46 2.44.49 1.43.49 3.12v12.64h-2.18q-.68 0-1.05-.2-.37-.21-.59-.83l-.43-1.45q-.76.69-1.48 1.2-.72.52-1.5.87t-1.67.54q-.89.18-1.96.18-1.27 0-2.34-.34-1.07-.34-1.85-1.02-.78-.69-1.21-1.7-.43-1.01-.43-2.36 0-.76.25-1.51.26-.75.83-1.43.58-.69 1.5-1.29.91-.61 2.25-1.05 1.33-.45 3.11-.73 1.77-.29 4.05-.35v-1.17q0-2-.85-2.97-.86-.96-2.48-.96-1.17 0-1.94.27t-1.36.61l-1.06.62q-.48.27-1.06.27-.51 0-.86-.26-.35-.27-.57-.62Zm32.71-2.16-1.1 1.73q-.19.32-.41.44-.21.13-.54.13-.35 0-.75-.2l-.93-.44q-.52-.24-1.2-.43-.67-.2-1.59-.2-1.42 0-2.23.61-.81.6-.81 1.57 0 .65.42 1.09.42.44 1.11.77.69.33 1.57.59.88.27 1.79.58.9.31 1.78.71.88.4 1.57 1.01.69.62 1.11 1.48.42.85.42 2.06 0 1.45-.52 2.66-.51 1.22-1.53 2.11-1.01.89-2.5 1.38-1.49.5-3.44.5-1.04 0-2.02-.18-.99-.19-1.89-.52-.91-.33-1.68-.78-.77-.45-1.36-.98l1.12-1.83q.21-.33.5-.51.29-.17.74-.17t.85.25q.4.26.93.55.52.29 1.24.55.71.25 1.8.25.86 0 1.47-.21.62-.2 1.02-.53t.58-.77q.19-.44.19-.91 0-.7-.42-1.15-.42-.45-1.11-.78-.7-.33-1.58-.59-.89-.27-1.82-.58-.92-.31-1.81-.73t-1.58-1.06q-.69-.65-1.11-1.58-.42-.94-.42-2.27 0-1.22.49-2.34.48-1.11 1.43-1.94.95-.82 2.36-1.32 1.41-.5 3.27-.5 2.06 0 3.76.68 1.7.69 2.83 1.8Zm3.99-2.17h4.84v20.01h-4.84v-20.01Zm5.5-5.83q0 .63-.25 1.17-.25.55-.67.96-.42.41-.99.65-.56.24-1.21.24-.62 0-1.18-.24-.55-.24-.96-.65-.41-.41-.66-.96-.24-.54-.24-1.17 0-.64.24-1.21.25-.56.66-.97.41-.41.96-.65.56-.25 1.18-.25.65 0 1.21.25.57.24.99.65.42.41.67.97.25.57.25 1.21Zm19.74 11.82h3.92q1.44 0 2.51-.36 1.07-.36 1.79-1.03.71-.68 1.06-1.64.35-.97.35-2.16 0-1.13-.35-2.04-.35-.92-1.05-1.57-.71-.64-1.78-.98-1.07-.34-2.53-.34h-3.92v10.12Zm-5.25-14.18h9.17q2.82 0 4.89.67 2.07.66 3.41 1.85 1.35 1.19 2 2.85.66 1.65.66 3.62 0 2.05-.69 3.76-.68 1.7-2.04 2.93-1.37 1.23-3.43 1.91-2.05.68-4.8.68h-3.92v9.93h-5.25v-28.2Zm27.18 15.9h9.09q0-.94-.26-1.77-.27-.83-.79-1.45-.53-.63-1.34-.99t-1.88-.36q-2.09 0-3.29 1.19-1.19 1.19-1.53 3.38Zm12.29 2.9h-12.38q.11 1.54.54 2.66.43 1.12 1.13 1.86.71.73 1.67 1.09.97.36 2.14.36 1.17 0 2.01-.28.85-.27 1.49-.6.63-.33 1.11-.6.48-.28.92-.28.61 0 .9.45l1.39 1.76q-.8.93-1.8 1.57-.99.63-2.08 1.01-1.08.38-2.2.54-1.12.15-2.17.15-2.09 0-3.88-.69-1.8-.69-3.12-2.05-1.33-1.35-2.09-3.35-.76-2-.76-4.63 0-2.05.66-3.85.67-1.81 1.9-3.14 1.24-1.34 3.03-2.12 1.78-.78 4.02-.78 1.89 0 3.49.61 1.6.6 2.75 1.76 1.15 1.16 1.81 2.85.65 1.68.65 3.85 0 1.09-.23 1.47-.24.38-.9.38Zm20.34-8.13-1.27 1.75q-.21.28-.42.43-.2.16-.59.16-.37 0-.73-.22-.35-.23-.83-.51-.49-.28-1.16-.51-.68-.22-1.67-.22-1.27 0-2.22.46-.96.45-1.59 1.31-.64.86-.95 2.08-.31 1.22-.31 2.76 0 1.6.34 2.84.34 1.25.98 2.1.65.85 1.56 1.29.92.44 2.07.44t1.86-.29q.72-.28 1.2-.62.49-.34.85-.62.36-.29.81-.29.59 0 .88.45l1.38 1.76q-.8.93-1.73 1.57-.94.63-1.94 1.01-1.01.38-2.07.54-1.06.15-2.12.15-1.85 0-3.49-.69-1.63-.69-2.86-2.02-1.23-1.32-1.94-3.24-.71-1.93-.71-4.38 0-2.21.63-4.09t1.86-3.25q1.23-1.38 3.04-2.16 1.82-.78 4.18-.78 2.24 0 3.93.72 1.68.72 3.03 2.07Zm7 5.23h9.09q0-.94-.27-1.77-.26-.83-.79-1.45-.52-.63-1.33-.99t-1.89-.36q-2.08 0-3.28 1.19-1.2 1.19-1.53 3.38Zm12.28 2.9h-12.38q.12 1.54.55 2.66.43 1.12 1.13 1.86.7.73 1.66 1.09.97.36 2.14.36 1.17 0 2.02-.28.85-.27 1.48-.6.63-.33 1.11-.6.48-.28.93-.28.6 0 .9.45l1.38 1.76q-.8.93-1.79 1.57-1 .63-2.08 1.01t-2.2.54q-1.13.15-2.18.15-2.09 0-3.88-.69t-3.12-2.05q-1.33-1.35-2.09-3.35-.76-2-.76-4.63 0-2.05.67-3.85.66-1.81 1.9-3.14 1.24-1.34 3.02-2.12t4.03-.78q1.89 0 3.49.61 1.6.6 2.75 1.76 1.15 1.16 1.8 2.85.65 1.68.65 3.85 0 1.09-.23 1.47-.23.38-.9.38Zm4.8-19.58h4.82v28.98h-4.82v-28.98Zm28.63 24.49h7.23q.78 0 1.24.44.46.44.46 1.16v2.89h-19.35v-1.6q0-.49.21-1.02.2-.54.65-.97l8.56-8.58q1.07-1.09 1.92-2.08.85-1 1.42-1.97.56-.98.86-1.98.31-1.01.31-2.12 0-1.01-.3-1.78-.29-.77-.83-1.3-.53-.53-1.28-.79t-1.69-.26q-.86 0-1.59.24-.73.24-1.29.68-.57.44-.96 1.03-.39.58-.59 1.28-.33.9-.85 1.19-.53.3-1.52.14l-2.54-.45q.29-2.03 1.13-3.56.84-1.53 2.1-2.55 1.26-1.03 2.88-1.54 1.63-.52 3.5-.52 1.95 0 3.57.58 1.62.57 2.77 1.62 1.15 1.06 1.8 2.54.64 1.48.64 3.29 0 1.57-.46 2.89-.46 1.33-1.23 2.54-.77 1.2-1.8 2.34-1.03 1.13-2.17 2.3l-6.35 6.49q.91-.27 1.82-.42.91-.15 1.73-.15Zm12.4 1.84q0-.61.22-1.15.23-.55.62-.94.39-.39.93-.62.55-.24 1.17-.24.63 0 1.16.24.54.23.94.62.4.39.63.94.24.54.24 1.15 0 .62-.24 1.16-.23.53-.63.92t-.94.62q-.53.22-1.16.22-.62 0-1.17-.22-.54-.23-.93-.62t-.62-.92q-.22-.54-.22-1.16Zm22.7-.96h5.07v3.61h-15.6v-3.61h5.71v-16.44q0-.97.06-2l-4.06 3.39q-.35.27-.69.34-.34.07-.64.01-.31-.06-.54-.21-.23-.14-.35-.32l-1.52-2.08 8.6-7.32h3.96v24.63Z"/></svg>