<svg xmlns="http://www.w3.org/2000/svg" width="400" height="200" viewBox="0 0 400 200"><rect width="100%" height="100%" fill="#DDDDDD"/><path fill="#999999" d="M97.285 66.945v66.52h-12.42v-66.52h12.42Zm22.9 21.39.79 3.73q1.42-1.43 3.01-2.65 1.59-1.21 3.36-2.07 1.77-.85 3.79-1.33 2.03-.48 4.42-.48 3.86 0 6.85 1.31 2.99 1.31 4.99 3.68t3.04 5.66q1.03 3.29 1.03 7.24v30.04h-11.36v-30.04q0-4.32-1.98-6.69-1.97-2.37-6.02-2.37-2.95 0-5.52 1.33-2.58 1.34-4.88 3.64v34.13h-11.36v-47.2h6.95q2.2 0 2.89 2.07Zm56.72 45.13h-11.36v-38.64l-4.09-.64q-1.34-.28-2.14-.95-.81-.66-.81-1.91v-4.64h7.04v-3.5q0-4.05 1.22-7.27 1.22-3.22 3.5-5.47 2.27-2.25 5.54-3.45 3.26-1.2 7.36-1.2 3.26 0 6.07.88l-.23 5.7q-.05.65-.37 1.04t-.85.6q-.53.2-1.22.27t-1.47.07q-2.02 0-3.61.44-1.59.43-2.69 1.51-1.11 1.09-1.68 2.86-.58 1.77-.58 4.39v3.13h12.29v8.09h-11.92v38.69Zm39.19-47.93q5.25 0 9.55 1.7 4.3 1.7 7.36 4.83 3.06 3.13 4.71 7.64 1.66 4.5 1.66 10.07 0 5.61-1.66 10.12-1.65 4.51-4.71 7.68-3.06 3.18-7.36 4.88-4.3 1.7-9.55 1.7-5.29 0-9.61-1.7-4.32-1.7-7.38-4.88-3.06-3.17-4.74-7.68-1.68-4.51-1.68-10.12 0-5.57 1.68-10.07 1.68-4.51 4.74-7.64 3.06-3.13 7.38-4.83 4.32-1.7 9.61-1.7Zm0 39.88q5.89 0 8.72-3.96 2.83-3.95 2.83-11.59 0-7.63-2.83-11.64-2.83-4-8.72-4-5.98 0-8.85 4.03-2.88 4.02-2.88 11.61t2.88 11.57q2.87 3.98 8.85 3.98Zm92.46-58.47-19.73 24.15-2.3 2.86q1.93-.97 4.16-1.5 2.23-.53 4.81-.53 3.77 0 7.34 1.24 3.56 1.25 6.28 3.75 2.71 2.51 4.37 6.24 1.65 3.72 1.65 8.69 0 4.65-1.7 8.72t-4.78 7.1q-3.09 3.04-7.43 4.79-4.35 1.75-9.59 1.75-5.34 0-9.57-1.71-4.23-1.7-7.22-4.76-2.99-3.06-4.58-7.36-1.59-4.3-1.59-9.54 0-4.69 1.91-9.64 1.91-4.94 5.91-10.28l15.87-21.3q.83-1.1 2.42-1.88 1.58-.79 3.65-.79h10.12Zm-17.15 57.96q2.71 0 4.99-.92 2.27-.92 3.91-2.57 1.63-1.66 2.55-3.89.92-2.23.92-4.85 0-2.85-.87-5.13-.88-2.28-2.49-3.87-1.61-1.58-3.86-2.41-2.26-.83-4.97-.83t-4.92.92q-2.21.92-3.77 2.56-1.57 1.63-2.44 3.86-.88 2.23-.88 4.81 0 2.76.76 5.03.76 2.28 2.26 3.89 1.49 1.61 3.7 2.51 2.21.89 5.11.89Z"/></svg>