<svg xmlns="http://www.w3.org/2000/svg" width="400" height="200" viewBox="0 0 400 200"><rect width="100%" height="100%" fill="#DDDDDD"/><path fill="#999999" d="M92.8 72.695v54.95H82.54v-54.95H92.8Zm18.93 17.67.64 3.08q1.18-1.18 2.49-2.18 1.31-1.01 2.77-1.71 1.47-.71 3.14-1.11 1.67-.4 3.65-.4 3.19 0 5.66 1.09 2.47 1.08 4.12 3.04 1.66 1.95 2.51 4.67.86 2.72.86 5.99v24.81h-9.39v-24.81q0-3.58-1.63-5.53-1.64-1.96-4.98-1.96-2.43 0-4.56 1.1-2.13 1.1-4.03 3v28.2h-9.39v-38.99h5.74q1.83 0 2.4 1.71Zm46.85 37.28h-9.39v-31.92l-3.38-.53q-1.1-.23-1.77-.78-.66-.55-.66-1.58v-3.84h5.81v-2.88q0-3.35 1.01-6.01 1.01-2.66 2.89-4.52 1.88-1.86 4.58-2.85t6.08-.99q2.7 0 5.01.72l-.19 4.72q-.03.53-.3.85-.27.32-.7.49-.44.18-1.01.23-.57.06-1.22.06-1.67 0-2.98.36t-2.22 1.26q-.91.89-1.39 2.35-.47 1.46-.47 3.63v2.58h10.14v6.69h-9.84v31.96Zm32.38-39.6q4.33 0 7.88 1.41t6.08 3.99q2.53 2.58 3.9 6.31 1.36 3.72 1.36 8.32 0 4.64-1.36 8.36-1.37 3.72-3.9 6.35-2.53 2.62-6.08 4.02-3.55 1.41-7.88 1.41-4.37 0-7.95-1.41-3.57-1.4-6.1-4.02-2.52-2.63-3.91-6.35-1.39-3.72-1.39-8.36 0-4.6 1.39-8.32 1.39-3.73 3.91-6.31 2.53-2.58 6.1-3.99 3.58-1.41 7.95-1.41Zm0 32.95q4.86 0 7.2-3.27 2.33-3.27 2.33-9.57 0-6.31-2.33-9.62-2.34-3.3-7.2-3.3-4.94 0-7.32 3.32-2.37 3.33-2.37 9.6t2.37 9.55q2.38 3.29 7.32 3.29Zm69.69-.38h9.88v7.03h-30.4v-7.03h11.13v-32.03q0-1.9.11-3.92l-7.9 6.61q-.68.54-1.35.67-.66.13-1.25.02-.59-.12-1.05-.4-.45-.29-.68-.63l-2.96-4.06 16.75-14.25h7.72v47.99Zm56.81-20.44q0 7.18-1.54 12.48-1.54 5.3-4.26 8.76-2.71 3.46-6.42 5.15-3.71 1.69-8 1.69t-7.96-1.69q-3.67-1.69-6.36-5.15-2.7-3.46-4.22-8.76-1.52-5.3-1.52-12.48 0-7.22 1.52-12.51 1.52-5.28 4.22-8.74 2.69-3.45 6.36-5.15 3.67-1.69 7.96-1.69t8 1.69q3.71 1.7 6.42 5.15 2.72 3.46 4.26 8.74 1.54 5.29 1.54 12.51Zm-9.69 0q0-5.97-.88-9.88-.87-3.92-2.33-6.24-1.47-2.31-3.37-3.25-1.9-.93-3.95-.93-2.01 0-3.89.93-1.88.94-3.33 3.25-1.44 2.32-2.3 6.24-.85 3.91-.85 9.88 0 5.96.85 9.88.86 3.91 2.3 6.23 1.45 2.32 3.33 3.25 1.88.93 3.89.93 2.05 0 3.95-.93 1.9-.93 3.37-3.25 1.46-2.32 2.33-6.23.88-3.92.88-9.88Z"/></svg>