<svg xmlns="http://www.w3.org/2000/svg" width="400" height="200" viewBox="0 0 400 200"><rect width="100%" height="100%" fill="#DDDDDD"/><path fill="#999999" d="M98.135 66.97v66.52h-12.42V66.97h12.42Zm22.9 21.39.79 3.73q1.42-1.43 3.01-2.65 1.59-1.21 3.36-2.07 1.77-.85 3.79-1.33 2.03-.48 4.42-.48 3.86 0 6.85 1.31 2.99 1.31 4.99 3.68t3.04 5.66q1.03 3.29 1.03 7.24v30.04h-11.36v-30.04q0-4.32-1.98-6.69-1.97-2.37-6.02-2.37-2.95 0-5.52 1.33-2.58 1.34-4.88 3.64v34.13h-11.36v-47.2h6.95q2.2 0 2.89 2.07Zm56.72 45.13h-11.36V94.85l-4.09-.64q-1.34-.28-2.14-.95-.81-.66-.81-1.91v-4.64h7.04v-3.5q0-4.05 1.22-7.27 1.22-3.22 3.5-5.47 2.27-2.25 5.54-3.45 3.26-1.2 7.36-1.2 3.26 0 6.07.88l-.23 5.7q-.05.65-.37 1.04t-.85.6q-.53.2-1.22.27t-1.47.07q-2.02 0-3.61.44-1.59.43-2.69 1.51-1.11 1.09-1.68 2.86-.58 1.77-.58 4.39v3.13h12.29v8.09h-11.92v38.69Zm39.19-47.93q5.25 0 9.55 1.7 4.3 1.7 7.36 4.83 3.06 3.13 4.71 7.64 1.66 4.5 1.66 10.07 0 5.61-1.66 10.12-1.65 4.51-4.71 7.68-3.06 3.18-7.36 4.88-4.3 1.7-9.55 1.7-5.29 0-9.61-1.7-4.32-1.7-7.38-4.88-3.06-3.17-4.74-7.68-1.68-4.51-1.68-10.12 0-5.57 1.68-10.07 1.68-4.51 4.74-7.64 3.06-3.13 7.38-4.83 4.32-1.7 9.61-1.7Zm0 39.88q5.89 0 8.72-3.96 2.83-3.95 2.83-11.59 0-7.63-2.83-11.64-2.83-4-8.72-4-5.98 0-8.85 4.03-2.88 4.02-2.88 11.61t2.88 11.57q2.87 3.98 8.85 3.98Zm63.9-38.5q0 5.56 2.87 8.49 2.88 2.92 8.17 2.92 2.76 0 4.92-.88 2.16-.87 3.63-2.39 1.48-1.52 2.24-3.59.75-2.07.75-4.46 0-2.71-.82-4.85-.83-2.14-2.35-3.61-1.52-1.48-3.61-2.26-2.09-.78-4.58-.78-2.57 0-4.64.85t-3.55 2.37q-1.47 1.52-2.25 3.61t-.78 4.58Zm-5.57 46.55 20.66-25.81q.78-.96 1.47-1.88.69-.92 1.33-1.84-2.3 1.47-5.06 2.23t-5.79.76q-3.45 0-6.77-1.2-3.31-1.19-5.88-3.61-2.58-2.41-4.17-5.98-1.58-3.56-1.58-8.35 0-4.46 1.65-8.37 1.66-3.91 4.65-6.85 2.99-2.95 7.17-4.65 4.19-1.7 9.25-1.7 5.11 0 9.18 1.61 4.07 1.61 6.94 4.51 2.88 2.89 4.42 6.94 1.54 4.05 1.54 8.88 0 3.08-.53 5.84t-1.49 5.31q-.97 2.56-2.35 5-1.38 2.43-3.08 4.83l-15.23 21.71q-.78 1.1-2.34 1.86-1.57.76-3.55.76h-10.44Z"/></svg>